<svg width="270" height="150" viewBox="0 0 270 150" fill="none" xmlns="http://www.w3.org/2000/svg">
<g id="fanorona">
<g id="bg">
<path id="board" d="M0 16C0 10.3995 0 7.59921 1.08993 5.46009C2.04867 3.57847 3.57847 2.04867 5.46009 1.08993C7.59921 0 10.3995 0 16 0H135H254C259.601 0 262.401 0 264.54 1.08993C266.422 2.04867 267.951 3.57847 268.91 5.46009C270 7.59921 270 10.3995 270 16V134C270 139.601 270 142.401 268.91 144.54C267.951 146.422 266.422 147.951 264.54 148.91C262.401 150 259.601 150 254 150H16C10.3995 150 7.59921 150 5.46009 148.91C3.57847 147.951 2.04867 146.422 1.08993 144.54C0 142.401 0 139.601 0 134V16Z" fill="#F5DEB3"/>
</g>
<path id="union-intersections" d="M255 5C260.523 5 265 9.47715 265 15C265 20.1853 261.053 24.4474 256 24.9492V35.0498C261.053 35.5515 265 39.8147 265 45C265 50.1853 261.053 54.4474 256 54.9492V65.0498C261.053 65.5515 265 69.8147 265 75C265 80.1853 261.053 84.4474 256 84.9492V95.0498C261.053 95.5515 265 99.8147 265 105C265 110.185 261.053 114.447 256 114.949V125.05C261.053 125.552 265 129.815 265 135C265 140.523 260.523 145 255 145C249.815 145 245.552 141.053 245.05 136H234.95C234.448 141.053 230.185 145 225 145C219.815 145 215.552 141.053 215.05 136H204.95C204.448 141.053 200.185 145 195 145C189.815 145 185.552 141.053 185.05 136H174.95C174.448 141.053 170.185 145 165 145C159.815 145 155.552 141.053 155.05 136H144.95C144.448 141.053 140.185 145 135 145C129.815 145 125.552 141.053 125.05 136H114.95C114.448 141.053 110.185 145 105 145C99.8147 145 95.5515 141.053 95.0498 136H84.9502C84.4485 141.053 80.1853 145 75 145C69.8147 145 65.5515 141.053 65.0498 136H54.9502C54.4485 141.053 50.1853 145 45 145C39.8147 145 35.5515 141.053 35.0498 136H24.9502C24.4485 141.053 20.1853 145 15 145C9.47715 145 5 140.523 5 135C5 129.815 8.9467 125.552 14 125.05V114.949C8.94674 114.447 5 110.185 5 105C5 99.8147 8.9467 95.5515 14 95.0498V84.9492C8.94674 84.4474 5 80.1853 5 75C5 69.8147 8.9467 65.5515 14 65.0498V54.9492C8.94674 54.4474 5 50.1853 5 45C5 39.8147 8.9467 35.5515 14 35.0498V24.9492C8.94674 24.4474 5 20.1853 5 15C5 9.47715 9.47715 5 15 5C20.1853 5 24.4485 8.9467 24.9502 14H35.0498C35.5515 8.9467 39.8147 5 45 5C50.1853 5 54.4485 8.9467 54.9502 14H65.0498C65.5515 8.9467 69.8147 5 75 5C80.1853 5 84.4485 8.9467 84.9502 14H95.0498C95.5515 8.9467 99.8147 5 105 5C110.185 5 114.448 8.9467 114.95 14H125.05C125.552 8.9467 129.815 5 135 5C140.185 5 144.448 8.9467 144.95 14H155.05C155.552 8.9467 159.815 5 165 5C170.185 5 174.448 8.9467 174.95 14H185.05C185.552 8.9467 189.815 5 195 5C200.185 5 204.448 8.9467 204.95 14H215.05C215.552 8.9467 219.815 5 225 5C230.185 5 234.448 8.9467 234.95 14H245.05C245.552 8.9467 249.815 5 255 5ZM22.7422 128.671C23.9549 130.153 24.7505 131.989 24.9502 134H35.0498C35.5189 129.276 39.2756 125.519 44 125.05V114.949C41.9886 114.749 40.1525 113.955 38.6709 112.742L22.7422 128.671ZM51.3281 112.742C49.8466 113.955 48.0112 114.75 46 114.949V125.05C50.7244 125.519 54.4811 129.276 54.9502 134H65.0498C65.2495 131.989 66.0444 130.152 67.2568 128.671L51.3281 112.742ZM82.5625 128.461C83.8752 129.978 84.7409 131.892 84.9502 134H95.0498C95.5189 129.276 99.2756 125.519 104 125.05V114.949C101.957 114.746 100.096 113.929 98.6025 112.685L82.5625 128.461ZM111.328 112.742C109.847 113.955 108.011 114.75 106 114.949V125.05C110.724 125.519 114.481 129.276 114.95 134H125.05C125.25 131.989 126.044 130.152 127.257 128.671L111.328 112.742ZM142.768 128.704C143.965 130.18 144.752 132.003 144.95 134H155.05C155.519 129.276 159.276 125.519 164 125.05V114.949C162.036 114.754 160.24 113.991 158.777 112.826L142.768 128.704ZM171.328 112.742C169.847 113.955 168.011 114.75 166 114.949V125.05C170.724 125.519 174.481 129.276 174.95 134H185.05C185.25 131.989 186.044 130.152 187.257 128.671L171.328 112.742ZM202.907 128.882C204.026 130.326 204.76 132.082 204.95 134H215.05C215.519 129.276 219.276 125.519 224 125.05V114.949C222.016 114.752 220.204 113.976 218.733 112.791L202.907 128.882ZM231.328 112.742C229.847 113.955 228.011 114.75 226 114.949V125.05C230.724 125.519 234.481 129.276 234.95 134H245.05C245.25 131.989 246.044 130.152 247.257 128.671L231.328 112.742ZM204.95 106C204.481 110.724 200.724 114.48 196 114.949V125.05C198.104 125.259 200.014 126.122 201.529 127.43L217.307 111.389C216.066 109.897 215.252 108.038 215.05 106H204.95ZM144.95 106C144.481 110.724 140.724 114.48 136 114.949V125.05C138.025 125.251 139.873 126.055 141.36 127.282L157.344 111.432C156.083 109.932 155.254 108.058 155.05 106H144.95ZM24.9502 106C24.4811 110.724 20.7243 114.48 16 114.949V125.05C18.011 125.249 19.8466 126.045 21.3281 127.257L37.2568 111.328C36.0446 109.847 35.2495 108.011 35.0498 106H24.9502ZM54.9502 106C54.7505 108.011 53.9546 109.847 52.7422 111.328L68.6709 127.257C70.1525 126.044 71.9887 125.25 74 125.05V114.949C69.2757 114.48 65.5189 110.724 65.0498 106H54.9502ZM114.95 106C114.751 108.011 113.955 109.847 112.742 111.328L128.671 127.257C130.152 126.044 131.989 125.25 134 125.05V114.949C129.276 114.48 125.519 110.724 125.05 106H114.95ZM174.95 106C174.751 108.011 173.955 109.847 172.742 111.328L188.671 127.257C190.152 126.044 191.989 125.25 194 125.05V114.949C189.276 114.48 185.519 110.724 185.05 106H174.95ZM234.95 106C234.751 108.011 233.955 109.847 232.742 111.328L248.671 127.257C250.152 126.044 251.989 125.25 254 125.05V114.949C249.276 114.48 245.519 110.724 245.05 106H234.95ZM84.9502 106C84.4811 110.724 80.7243 114.48 76 114.949V125.05C77.9133 125.24 79.6665 125.971 81.1084 127.085L97.2012 111.258C96.0208 109.789 95.2464 107.98 95.0498 106H84.9502ZM21.3281 82.7422C19.8466 83.9546 18.0112 84.7495 16 84.9492V95.0498C20.7244 95.5189 24.4811 99.2756 24.9502 104H35.0498C35.2495 101.989 36.0444 100.152 37.2568 98.6709L21.3281 82.7422ZM52.7422 98.6709C53.9549 100.153 54.7505 101.989 54.9502 104H65.0498C65.5189 99.2756 69.2756 95.5189 74 95.0498V84.9492C71.9886 84.7495 70.1525 83.9548 68.6709 82.7422L52.7422 98.6709ZM81.3281 82.7422C79.8466 83.9546 78.0112 84.7495 76 84.9492V95.0498C80.7244 95.5189 84.4811 99.2756 84.9502 104H95.0498C95.2495 101.989 96.0444 100.152 97.2568 98.6709L81.3281 82.7422ZM112.789 98.7314C113.975 100.203 114.753 102.015 114.95 104H125.05C125.519 99.2756 129.276 95.5189 134 95.0498V84.9492C132.081 84.7587 130.323 84.0252 128.879 82.9053L112.789 98.7314ZM141.328 82.7422C139.847 83.9546 138.011 84.7495 136 84.9492V95.0498C140.724 95.5189 144.481 99.2756 144.95 104H155.05C155.25 101.989 156.044 100.152 157.257 98.6709L141.328 82.7422ZM172.877 98.8428C174.013 100.294 174.758 102.065 174.95 104H185.05C185.519 99.2756 189.276 95.5189 194 95.0498V84.9492C192.098 84.7604 190.354 84.0387 188.917 82.9355L172.877 98.8428ZM201.328 82.7422C199.847 83.9546 198.011 84.7495 196 84.9492V95.0498C200.724 95.5189 204.481 99.2756 204.95 104H215.05C215.25 101.989 216.044 100.152 217.257 98.6709L201.328 82.7422ZM232.687 98.6035C233.93 100.097 234.747 101.958 234.95 104H245.05C245.519 99.2756 249.276 95.5189 254 95.0498V84.9492C251.892 84.7399 249.979 83.8756 248.462 82.5635L232.687 98.6035ZM174.95 76C174.481 80.7244 170.724 84.4801 166 84.9492V95.0498C168.087 95.2571 169.985 96.1076 171.494 97.3984L187.459 81.5645C186.134 80.0437 185.26 78.1199 185.05 76H174.95ZM114.95 76C114.481 80.7244 110.724 84.4801 106 84.9492V95.0498C108.038 95.2521 109.895 96.0662 111.387 97.3057L127.428 81.5283C126.12 80.0133 125.259 78.1032 125.05 76H114.95ZM24.9502 76C24.7505 78.0112 23.9546 79.8466 22.7422 81.3281L38.6709 97.2568C40.1525 96.0444 41.9887 95.2495 44 95.0498V84.9492C39.2757 84.4801 35.5189 80.7244 35.0498 76H24.9502ZM54.9502 76C54.4811 80.7244 50.7243 84.4801 46 84.9492V95.0498C48.011 95.2495 49.8466 96.0446 51.3281 97.2568L67.2568 81.3281C66.0446 79.8466 65.2495 78.011 65.0498 76H54.9502ZM84.9502 76C84.7505 78.0112 83.9546 79.8466 82.7422 81.3281L98.6709 97.2568C100.152 96.0444 101.989 95.2495 104 95.0498V84.9492C99.2757 84.4801 95.5189 80.7244 95.0498 76H84.9502ZM144.95 76C144.751 78.0112 143.955 79.8466 142.742 81.3281L158.671 97.2568C160.152 96.0444 161.989 95.2495 164 95.0498V84.9492C159.276 84.4801 155.519 80.7244 155.05 76H144.95ZM204.95 76C204.751 78.0112 203.955 79.8466 202.742 81.3281L218.671 97.2568C220.152 96.0444 221.989 95.2495 224 95.0498V84.9492C219.276 84.4801 215.519 80.7244 215.05 76H204.95ZM234.95 76C234.481 80.7244 230.724 84.4801 226 84.9492V95.0498C227.98 95.2464 229.789 96.022 231.259 97.2031L247.086 81.1113C245.971 79.669 245.24 77.9143 245.05 76H234.95ZM22.7422 68.6709C23.9549 70.1526 24.7505 71.9885 24.9502 74H35.0498C35.5189 69.2756 39.2756 65.5189 44 65.0498V54.9492C41.9886 54.7495 40.1525 53.9548 38.6709 52.7422L22.7422 68.6709ZM51.3281 52.7422C49.8466 53.9546 48.0112 54.7495 46 54.9492V65.0498C50.7244 65.5189 54.4811 69.2756 54.9502 74H65.0498C65.2495 71.9887 66.0444 70.1525 67.2568 68.6709L51.3281 52.7422ZM82.7422 68.6709C83.9549 70.1526 84.7505 71.9885 84.9502 74H95.0498C95.5189 69.2756 99.2756 65.5189 104 65.0498V54.9492C101.989 54.7495 100.153 53.9548 98.6709 52.7422L82.7422 68.6709ZM111.328 52.7422C109.847 53.9546 108.011 54.7495 106 54.9492V65.0498C110.724 65.5189 114.481 69.2756 114.95 74H125.05C125.25 71.9887 126.044 70.1525 127.257 68.6709L111.328 52.7422ZM143.008 69.0098C144.071 70.4286 144.765 72.1392 144.95 74H155.05C155.519 69.2756 159.276 65.5189 164 65.0498V54.9492C162.206 54.7711 160.553 54.1183 159.165 53.1191L143.008 69.0098ZM171.328 52.7422C169.847 53.9546 168.011 54.7495 166 54.9492V65.0498C170.724 65.5189 174.481 69.2756 174.95 74H185.05C185.25 71.9887 186.044 70.1525 187.257 68.6709L171.328 52.7422ZM202.986 68.9824C204.061 70.4067 204.764 72.1271 204.95 74H215.05C215.519 69.2756 219.276 65.5189 224 65.0498V54.9492C222.16 54.7665 220.468 54.0858 219.059 53.043L202.986 68.9824ZM231.328 52.7422C229.847 53.9546 228.011 54.7495 226 54.9492V65.0498C230.724 65.5189 234.481 69.2756 234.95 74H245.05C245.25 71.9887 246.044 70.1525 247.257 68.6709L231.328 52.7422ZM144.95 46C144.481 50.7244 140.724 54.4801 136 54.9492V65.0498C138.161 65.2644 140.119 66.1683 141.653 67.5371L157.662 51.792C156.223 50.238 155.271 48.2268 155.05 46H144.95ZM204.95 46C204.481 50.7244 200.724 54.4801 196 54.9492V65.0498C198.149 65.2632 200.097 66.158 201.627 67.5137L217.575 51.6973C216.185 50.1566 215.266 48.1818 215.05 46H204.95ZM24.9502 46C24.4811 50.7244 20.7243 54.4801 16 54.9492V65.0498C18.011 65.2495 19.8466 66.0446 21.3281 67.2568L37.2568 51.3281C36.0446 49.8466 35.2495 48.011 35.0498 46H24.9502ZM54.9502 46C54.7505 48.0112 53.9546 49.8466 52.7422 51.3281L68.6709 67.2568C70.1525 66.0444 71.9887 65.2495 74 65.0498V54.9492C69.2757 54.4801 65.5189 50.7244 65.0498 46H54.9502ZM84.9502 46C84.4811 50.7244 80.7243 54.4801 76 54.9492V65.0498C78.011 65.2495 79.8466 66.0446 81.3281 67.2568L97.2568 51.3281C96.0446 49.8466 95.2495 48.011 95.0498 46H84.9502ZM114.95 46C114.751 48.0112 113.955 49.8466 112.742 51.3281L128.671 67.2568C130.152 66.0444 131.989 65.2495 134 65.0498V54.9492C129.276 54.4801 125.519 50.7244 125.05 46H114.95ZM174.95 46C174.751 48.0112 173.955 49.8466 172.742 51.3281L188.671 67.2568C190.152 66.0444 191.989 65.2495 194 65.0498V54.9492C189.276 54.4801 185.519 50.7244 185.05 46H174.95ZM234.95 46C234.751 48.0112 233.955 49.8466 232.742 51.3281L248.671 67.2568C250.152 66.0444 251.989 65.2495 254 65.0498V54.9492C249.276 54.4801 245.519 50.7244 245.05 46H234.95ZM21.3281 22.7422C19.8466 23.9546 18.0112 24.7495 16 24.9492V35.0498C20.7244 35.5189 24.4811 39.2756 24.9502 44H35.0498C35.2495 41.9887 36.0444 40.1525 37.2568 38.6709L21.3281 22.7422ZM52.7422 38.6709C53.9549 40.1526 54.7505 41.9885 54.9502 44H65.0498C65.5189 39.2756 69.2756 35.5189 74 35.0498V24.9492C71.9886 24.7495 70.1525 23.9548 68.6709 22.7422L52.7422 38.6709ZM81.3281 22.7422C79.8466 23.9546 78.0112 24.7495 76 24.9492V35.0498C80.7244 35.5189 84.4811 39.2756 84.9502 44H95.0498C95.2495 41.9887 96.0444 40.1525 97.2568 38.6709L81.3281 22.7422ZM112.742 38.6709C113.955 40.1526 114.75 41.9885 114.95 44H125.05C125.519 39.2756 129.276 35.5189 134 35.0498V24.9492C131.989 24.7495 130.153 23.9548 128.671 22.7422L112.742 38.6709ZM141.328 22.7422C139.847 23.9546 138.011 24.7495 136 24.9492V35.0498C140.724 35.5189 144.481 39.2756 144.95 44H155.05C155.25 41.9887 156.044 40.1525 157.257 38.6709L141.328 22.7422ZM173.215 39.3008C174.16 40.6604 174.778 42.2641 174.95 44H185.05C185.519 39.2756 189.276 35.5189 194 35.0498V24.9492C192.331 24.7835 190.784 24.208 189.459 23.3242L173.215 39.3008ZM201.328 22.7422C199.847 23.9546 198.011 24.7495 196 24.9492V35.0498C200.724 35.5189 204.481 39.2756 204.95 44H215.05C215.25 41.9887 216.044 40.1525 217.257 38.6709L201.328 22.7422ZM233.092 39.127C234.107 40.5226 234.77 42.1897 234.95 44H245.05C245.519 39.2756 249.276 35.5189 254 35.0498V24.9492C252.223 24.7727 250.584 24.13 249.204 23.1465L233.092 39.127ZM174.95 16C174.481 20.7244 170.724 24.4801 166 24.9492V35.0498C168.285 35.2767 170.341 36.2741 171.911 37.7764L187.905 22.0459C186.33 20.4602 185.283 18.3501 185.05 16H174.95ZM234.95 16C234.481 20.7244 230.724 24.4801 226 24.9492V35.0498C228.211 35.2693 230.209 36.2091 231.759 37.6309L247.695 21.8262C246.238 20.2674 245.273 18.2435 245.05 16H234.95ZM24.9502 16C24.7505 18.0112 23.9546 19.8466 22.7422 21.3281L38.6709 37.2568C40.1525 36.0444 41.9887 35.2495 44 35.0498V24.9492C39.2757 24.4801 35.5189 20.7244 35.0498 16H24.9502ZM54.9502 16C54.4811 20.7244 50.7243 24.4801 46 24.9492V35.0498C48.011 35.2495 49.8466 36.0446 51.3281 37.2568L67.2568 21.3281C66.0446 19.8466 65.2495 18.011 65.0498 16H54.9502ZM84.9502 16C84.7505 18.0112 83.9546 19.8466 82.7422 21.3281L98.6709 37.2568C100.152 36.0444 101.989 35.2495 104 35.0498V24.9492C99.2757 24.4801 95.5189 20.7244 95.0498 16H84.9502ZM114.95 16C114.481 20.7244 110.724 24.4801 106 24.9492V35.0498C108.011 35.2495 109.847 36.0446 111.328 37.2568L127.257 21.3281C126.045 19.8466 125.249 18.011 125.05 16H114.95ZM144.95 16C144.751 18.0112 143.955 19.8466 142.742 21.3281L158.671 37.2568C160.152 36.0444 161.989 35.2495 164 35.0498V24.9492C159.276 24.4801 155.519 20.7244 155.05 16H144.95ZM204.95 16C204.751 18.0112 203.955 19.8466 202.742 21.3281L218.671 37.2568C220.152 36.0444 221.989 35.2495 224 35.0498V24.9492C219.276 24.4801 215.519 20.7244 215.05 16H204.95Z" fill="#DFBC7A"/>
<g id="stone-placeholders">
<circle id="sp0" cx="15" cy="15" r="10" fill="#DFBC7A"/>
<circle id="sp1" cx="45" cy="15" r="10" fill="#DFBC7A"/>
<circle id="sp2" cx="75" cy="15" r="10" fill="#DFBC7A"/>
<circle id="sp3" cx="105" cy="15" r="10" fill="#DFBC7A"/>
<circle id="sp4" cx="135" cy="15" r="10" fill="#DFBC7A"/>
<circle id="sp5" cx="165" cy="15" r="10" fill="#DFBC7A"/>
<circle id="sp6" cx="195" cy="15" r="10" fill="#DFBC7A"/>
<circle id="sp7" cx="225" cy="15" r="10" fill="#DFBC7A"/>
<circle id="sp8" cx="255" cy="15" r="10" fill="#DFBC7A"/>
<circle id="sp9" cx="15" cy="45" r="10" fill="#DFBC7A"/>
<circle id="sp10" cx="45" cy="45" r="10" fill="#DFBC7A"/>
<circle id="sp11" cx="75" cy="45" r="10" fill="#DFBC7A"/>
<circle id="sp12" cx="105" cy="45" r="10" fill="#DFBC7A"/>
<circle id="sp13" cx="135" cy="45" r="10" fill="#DFBC7A"/>
<circle id="sp14" cx="165" cy="45" r="10" fill="#DFBC7A"/>
<circle id="sp15" cx="195" cy="45" r="10" fill="#DFBC7A"/>
<circle id="sp16" cx="225" cy="45" r="10" fill="#DFBC7A"/>
<circle id="sp17" cx="255" cy="45" r="10" fill="#DFBC7A"/>
<circle id="sp18" cx="15" cy="75" r="10" fill="#DFBC7A"/>
<circle id="sp19" cx="45" cy="75" r="10" fill="#DFBC7A"/>
<circle id="sp20" cx="75" cy="75" r="10" fill="#DFBC7A"/>
<circle id="sp21" cx="105" cy="75" r="10" fill="#DFBC7A"/>
<circle id="sp22" cx="135" cy="75" r="10" fill="#DFBC7A"/>
<circle id="sp23" cx="165" cy="75" r="10" fill="#DFBC7A"/>
<circle id="sp24" cx="195" cy="75" r="10" fill="#DFBC7A"/>
<circle id="sp25" cx="225" cy="75" r="10" fill="#DFBC7A"/>
<circle id="sp26" cx="255" cy="75" r="10" fill="#DFBC7A"/>
<circle id="sp27" cx="15" cy="105" r="10" fill="#DFBC7A"/>
<circle id="sp28" cx="45" cy="105" r="10" fill="#DFBC7A"/>
<circle id="sp29" cx="75" cy="105" r="10" fill="#DFBC7A"/>
<circle id="sp30" cx="105" cy="105" r="10" fill="#DFBC7A"/>
<circle id="sp31" cx="135" cy="105" r="10" fill="#DFBC7A"/>
<circle id="sp32" cx="165" cy="105" r="10" fill="#DFBC7A"/>
<circle id="sp33" cx="195" cy="105" r="10" fill="#DFBC7A"/>
<circle id="sp34" cx="225" cy="105" r="10" fill="#DFBC7A"/>
<circle id="sp35" cx="255" cy="105" r="10" fill="#DFBC7A"/>
<circle id="sp36" cx="15" cy="135" r="10" fill="#DFBC7A"/>
<circle id="sp37" cx="45" cy="135" r="10" fill="#DFBC7A"/>
<circle id="sp38" cx="75" cy="135" r="10" fill="#DFBC7A"/>
<circle id="sp39" cx="105" cy="135" r="10" fill="#DFBC7A"/>
<circle id="sp40" cx="135" cy="135" r="10" fill="#DFBC7A"/>
<circle id="sp41" cx="165" cy="135" r="10" fill="#DFBC7A"/>
<circle id="sp42" cx="195" cy="135" r="10" fill="#DFBC7A"/>
<circle id="sp43" cx="225" cy="135" r="10" fill="#DFBC7A"/>
<circle id="sp44" cx="255" cy="135" r="10" fill="#DFBC7A"/>
</g>
<g id="stones">
<g id="black">
<g id="stone-component">
<circle id="b" cx="15" cy="15" r="9.75" fill="black" stroke="black" stroke-width="0.5"/>
</g>
<g id="stone-component_2">
<circle id="b_2" cx="15" cy="45" r="9.75" fill="black" stroke="black" stroke-width="0.5"/>
</g>
<g id="stone-component_3">
<circle id="b_3" cx="45" cy="45" r="9.75" fill="black" stroke="black" stroke-width="0.5"/>
</g>
<g id="stone-component_4">
<circle id="b_4" cx="75" cy="45" r="9.75" fill="black" stroke="black" stroke-width="0.5"/>
</g>
<g id="stone-component_5">
<circle id="b_5" cx="105" cy="45" r="9.75" fill="black" stroke="black" stroke-width="0.5"/>
</g>
<g id="stone-component_6">
<circle id="b_6" cx="135" cy="45" r="9.75" fill="black" stroke="black" stroke-width="0.5"/>
</g>
<g id="stone-component_7">
<circle id="b_7" cx="165" cy="45" r="9.75" fill="black" stroke="black" stroke-width="0.5"/>
</g>
<g id="stone-component_8">
<circle id="b_8" cx="195" cy="45" r="9.75" fill="black" stroke="black" stroke-width="0.5"/>
</g>
<g id="stone-component_9">
<circle id="b_9" cx="225" cy="45" r="9.75" fill="black" stroke="black" stroke-width="0.5"/>
</g>
<g id="stone-component_10">
<circle id="b_10" cx="255" cy="45" r="9.75" fill="black" stroke="black" stroke-width="0.5"/>
</g>
<g id="stone-component_11">
<circle id="b_11" cx="15" cy="75" r="9.75" fill="black" stroke="black" stroke-width="0.5"/>
</g>
<g id="stone-component_12">
<circle id="b_12" cx="75" cy="75" r="9.75" fill="black" stroke="black" stroke-width="0.5"/>
</g>
<g id="stone-component_13">
<circle id="b_13" cx="165" cy="75" r="9.75" fill="black" stroke="black" stroke-width="0.5"/>
</g>
<g id="stone-component_14">
<circle id="b_14" cx="45" cy="15" r="9.75" fill="black" stroke="black" stroke-width="0.5"/>
</g>
<g id="stone-component_15">
<circle id="b_15" cx="75" cy="15" r="9.75" fill="black" stroke="black" stroke-width="0.5"/>
</g>
<g id="stone-component_16">
<circle id="b_16" cx="105" cy="15" r="9.75" fill="black" stroke="black" stroke-width="0.5"/>
</g>
<g id="stone-component_17">
<circle id="b_17" cx="135" cy="15" r="9.75" fill="black" stroke="black" stroke-width="0.5"/>
</g>
<g id="stone-component_18">
<circle id="b_18" cx="165" cy="15" r="9.75" fill="black" stroke="black" stroke-width="0.5"/>
</g>
<g id="stone-component_19">
<circle id="b_19" cx="195" cy="15" r="9.75" fill="black" stroke="black" stroke-width="0.5"/>
</g>
<g id="stone-component_20">
<circle id="b_20" cx="225" cy="15" r="9.75" fill="black" stroke="black" stroke-width="0.5"/>
</g>
<g id="stone-component_21">
<circle id="b_21" cx="255" cy="15" r="9.75" fill="black" stroke="black" stroke-width="0.5"/>
</g>
<g id="stone-component_22">
<circle id="b_22" cx="225" cy="75" r="9.75" fill="black" stroke="black" stroke-width="0.5"/>
</g>
</g>
<g id="white">
<g id="stone-component_23">
<circle id="w" cx="15" cy="105" r="9.75" fill="white" stroke="black" stroke-width="0.5"/>
</g>
<g id="stone-component_24">
<circle id="w_2" cx="255" cy="135" r="9.75" fill="white" stroke="black" stroke-width="0.5"/>
</g>
<g id="stone-component_25">
<circle id="w_3" cx="105" cy="105" r="9.75" fill="white" stroke="black" stroke-width="0.5"/>
</g>
<g id="stone-component_26">
<circle id="w_4" cx="105" cy="75" r="9.75" fill="white" stroke="black" stroke-width="0.5"/>
</g>
<g id="stone-component_27">
<circle id="w_5" cx="195" cy="75" r="9.75" fill="white" stroke="black" stroke-width="0.5"/>
</g>
<g id="stone-component_28">
<circle id="w_6" cx="255" cy="75" r="9.75" fill="white" stroke="black" stroke-width="0.5"/>
</g>
<g id="stone-component_29">
<circle id="w_7" cx="195" cy="105" r="9.75" fill="white" stroke="black" stroke-width="0.5"/>
</g>
<g id="stone-component_30">
<circle id="w_8" cx="45" cy="105" r="9.75" fill="white" stroke="black" stroke-width="0.5"/>
</g>
<g id="stone-component_31">
<circle id="w_9" cx="75" cy="105" r="9.75" fill="white" stroke="black" stroke-width="0.5"/>
</g>
<g id="stone-component_32">
<circle id="w_10" cx="165" cy="105" r="9.75" fill="white" stroke="black" stroke-width="0.5"/>
</g>
<g id="stone-component_33">
<circle id="w_11" cx="135" cy="105" r="9.75" fill="white" stroke="black" stroke-width="0.5"/>
</g>
<g id="stone-component_34">
<circle id="w_12" cx="225" cy="105" r="9.75" fill="white" stroke="black" stroke-width="0.5"/>
</g>
<g id="stone-component_35">
<circle id="w_13" cx="255" cy="105" r="9.75" fill="white" stroke="black" stroke-width="0.5"/>
</g>
<g id="stone-component_36">
<circle id="w_14" cx="15" cy="135" r="9.75" fill="white" stroke="black" stroke-width="0.5"/>
</g>
<g id="stone-component_37">
<circle id="w_15" cx="165" cy="135" r="9.75" fill="white" stroke="black" stroke-width="0.5"/>
</g>
<g id="stone-component_38">
<circle id="w_16" cx="45" cy="135" r="9.75" fill="white" stroke="black" stroke-width="0.5"/>
</g>
<g id="stone-component_39">
<circle id="w_17" cx="75" cy="135" r="9.75" fill="white" stroke="black" stroke-width="0.5"/>
</g>
<g id="stone-component_40">
<circle id="w_18" cx="225" cy="135" r="9.75" fill="white" stroke="black" stroke-width="0.5"/>
</g>
<g id="stone-component_41">
<circle id="w_19" cx="105" cy="135" r="9.75" fill="white" stroke="black" stroke-width="0.5"/>
</g>
<g id="stone-component_42">
<circle id="w_20" cx="135" cy="135" r="9.75" fill="white" stroke="black" stroke-width="0.5"/>
</g>
<g id="stone-component_43">
<circle id="w_21" cx="195" cy="135" r="9.75" fill="white" stroke="black" stroke-width="0.5"/>
</g>
<g id="stone-component_44">
<circle id="w_22" cx="45" cy="75" r="9.75" fill="white" stroke="black" stroke-width="0.5"/>
</g>
</g>
</g>
</g>
</svg>
